PathFileType	4	(X/Y/Z)	/Users/itak/Documents/Research/Walk-IL/dataset/trc/00129_00007.trc
DataRate	CameraRate	NumFrames	NumMarkers	Units	OrigDataRate	OrigDataStartFrame	OrigNumFrames
100.000000	100.000000	4	53	mm	100.000000	630	721
Frame#	Time	RPSI			LPSI			L3			STRN			T10			C7			CLAV			RBAK			LBAK			LSHO			LUPA			LAEL			LAOL			LWTS			LWPS			LFRA			LIFD			LHPS			LHTS			RSHO			RUPA			RAEL			RAOL			RWTS			RWPS			RFRA			RIFD			RHTS			RHPS			RBHD			LFHD			RFHD			LBHD			LHIP			RHIP			RASI			LASI			LKNE			LTHI			LANK			LTIP			LTOE			LMT1			LMT5			LHEE			RKNE			RTHI			RANK			RTIP			RTOE			RMT1			RMT5			RHEE			
		X1	Y1	Z1	X2	Y2	Z2	X3	Y3	Z3	X4	Y4	Z4	X5	Y5	Z5	X6	Y6	Z6	X7	Y7	Z7	X8	Y8	Z8	X9	Y9	Z9	X10	Y10	Z10	X11	Y11	Z11	X12	Y12	Z12	X13	Y13	Z13	X14	Y14	Z14	X15	Y15	Z15	X16	Y16	Z16	X17	Y17	Z17	X18	Y18	Z18	X19	Y19	Z19	X20	Y20	Z20	X21	Y21	Z21	X22	Y22	Z22	X23	Y23	Z23	X24	Y24	Z24	X25	Y25	Z25	X26	Y26	Z26	X27	Y27	Z27	X28	Y28	Z28	X29	Y29	Z29	X30	Y30	Z30	X31	Y31	Z31	X32	Y32	Z32	X33	Y33	Z33	X34	Y34	Z34	X35	Y35	Z35	X36	Y36	Z36	X37	Y37	Z37	X38	Y38	Z38	X39	Y39	Z39	X40	Y40	Z40	X41	Y41	Z41	X42	Y42	Z42	X43	Y43	Z43	X44	Y44	Z44	X45	Y45	Z45	X46	Y46	Z46	X47	Y47	Z47	X48	Y48	Z48	X49	Y49	Z49	X50	Y50	Z50	X51	Y51	Z51	X52	Y52	Z52	X53	Y53	Z53	

631	6.3	597.4266967773438	1106.601928710938	839.7050170898438	645.9951171875	1123.995239257812	965.1151733398438	629.809326171875	1154.238525390625	901.1035766601562	425.399169921875	1360.894897460938	982.999755859375	662.3704223632812	1307.12841796875	885.0262451171875	638.1898803710938	1599.216064453125	914.6126708984375	464.5545349121094	1495.024780273438	974.566162109375	652.4177856445312	1416.449951171875	810.7319946289062	682.4201049804688	1578.064208984375	1005.996032714844	626.92919921875	1566.376708984375	1099.972900390625	666.8065795898438	1439.575439453125	1166.87841796875	650.9053344726562	1228.261840820312	1221.090698242188	687.5016479492188	1200.806640625	1145.646850585938	506.5681762695312	993.7971801757812	1262.968383789062	586.6127319335938	954.12060546875	1258.79541015625	623.7845458984375	1118.068237304688	1249.681884765625	456.1193237304688	807.4757690429688	1276.699584960938	549.2501220703125	887.614013671875	1283.417236328125	484.3186340332031	911.2298583984375	1294.525024414062	516.612060546875	1583.81591796875	767.9417724609375	507.3458862304688	1511.396850585938	701.7074584960938	510.5076293945312	1216.540405273438	676.6970825195312	552.7709350585938	1215.749755859375	763.011962890625	377.3061218261719	977.1582641601562	746.0740966796875	435.0882568359375	957.6444702148438	689.9891967773438	481.1515808105469	1143.374389648438	672.0589599609375	356.5275268554688	783.3878784179688	774.0789794921875	345.8827209472656	869.2493896484375	753.5074462890625	396.8798828125	859.3344116210938	700.7799072265625	575.6534423828125	1769.702880859375	859.027099609375	466.897216796875	1840.972045898438	1039.002319335938	421.6900329589844	1840.672973632812	916.2532348632812	627.9384155273438	1773.635375976562	982.864013671875	600.03173828125	1049.28857421875	1107.480712890625	429.1214904785156	1010.943359375	789.3668212890625	381.716796875	1095.335815429688	863.4212646484375	484.1085815429688	1111.181030273438	1106.552001953125	535.3739013671875	547.7448120117188	1111.533447265625	574.7210693359375	691.0497436523438	1119.988037109375	558.1992797851562	36.93010711669922	1069.796752929688	598.6546630859375	292.0445861816406	1100.26416015625	319.4375	39.85751342773438	1096.931640625	385.0304870605469	47.51457977294922	1038.411987304688	451.2232360839844	39.2133903503418	1137.618041992188	599.3753662109375	37.68085861206055	987.5833740234375	316.9732360839844	538.5606079101562	892.7250366210938	367.6665649414062	810.8760986328125	836.9671020507812	615.197265625	133.8200225830078	725.89453125	380.4247131347656	422.0057373046875	844.0369873046875	449.9386291503906	52.91332244873047	865.4954223632812	522.1088256835938	61.47595977783203	877.6207275390625	498.0587158203125	79.68841552734375	760.258544921875	682.3056030273438	159.3824615478516	746.2538452148438	
632	6.31	595.3240356445312	1106.981079101562	841.7216796875	643.9653930664062	1124.072387695312	967.1470947265625	627.8233032226562	1154.42138671875	903.1993408203125	423.565673828125	1361.224731445312	985.2804565429688	660.7568969726562	1307.31494140625	887.3832397460938	636.495361328125	1599.412353515625	917.117919921875	462.7669067382812	1495.314453125	976.8511352539062	650.8802490234375	1416.637573242188	813.2451171875	680.5894775390625	1578.267578125	1008.585144042969	624.9010620117188	1566.652099609375	1102.44921875	664.3046264648438	1439.837280273438	1169.558227539062	647.3924560546875	1228.594360351562	1224.049194335938	684.2838745117188	1200.869995117188	1148.824096679688	501.0100708007812	995.3192138671875	1265.448974609375	580.846923828125	954.994873046875	1261.864501953125	619.400634765625	1118.63134765625	1252.659912109375	449.0291748046875	809.478759765625	1279.290283203125	542.7733154296875	888.8422241210938	1286.377319335938	477.918212890625	912.9981079101562	1297.041259765625	515.093994140625	1583.98583984375	770.2529296875	505.9359436035156	1511.52734375	704.0492553710938	509.2016906738281	1216.614868164062	679.3268432617188	551.534423828125	1215.947509765625	765.6419677734375	375.9590759277344	977.2500610351562	748.8593139648438	433.7466125488281	957.7073974609375	692.799072265625	479.8337097167969	1143.440551757812	674.7423706054688	355.2518005371094	783.5969848632812	777.1640625	344.5039672851562	869.3571166992188	756.41064453125	395.5913696289062	859.3759765625	703.7493286132812	574.1292724609375	1770.08740234375	861.6309814453125	464.7121887207031	1841.007446289062	1041.302368164062	419.9154052734375	1840.885620117188	918.3873901367188	625.968994140625	1773.844482421875	985.6337280273438	597.9409790039062	1049.191772460938	1109.405517578125	426.8915100097656	1011.5107421875	791.3712768554688	379.3077697753906	1095.909545898438	865.4103393554688	482.2370300292969	1111.12744140625	1108.645874023438	533.8010864257812	547.6751708984375	1112.050537109375	572.9918212890625	690.948974609375	1121.149047851562	558.1409301757812	37.05649185180664	1069.689086914062	597.7760009765625	291.9841003417969	1100.620239257812	319.2484436035156	39.72584533691406	1096.940185546875	384.9723205566406	47.4342155456543	1038.423950195312	451.1921691894531	39.2586669921875	1137.586181640625	599.3001098632812	37.73648834228516	987.4778442382812	315.4703369140625	539.1405029296875	896.0750732421875	365.4306030273438	811.3311767578125	839.159423828125	604.7037963867188	126.5943145751953	733.7720947265625	377.1295166015625	421.2281494140625	848.1129150390625	435.2407836914062	53.75458908081055	873.3471069335938	507.7953491210938	59.42934799194336	885.8072509765625	485.1209411621094	78.10353088378906	768.0950927734375	672.8043212890625	149.4397125244141	754.1591796875	
633	6.32	593.1780395507812	1107.39501953125	843.6456909179688	641.958984375	1124.1669921875	969.0687255859375	625.8087768554688	1154.615356445312	905.1866455078125	421.7715148925781	1361.534301757812	987.4878540039062	659.1461181640625	1307.494995117188	889.613037109375	634.8482666015625	1599.5947265625	919.4996337890625	461.0143432617188	1495.600708007812	979.0612182617188	649.3478393554688	1416.79931640625	815.6502685546875	678.8222045898438	1578.456787109375	1011.037353515625	622.9583129882812	1566.916137695312	1104.810180664062	661.946533203125	1440.075317382812	1172.078735351562	644.0762939453125	1228.888671875	1226.795532226562	681.23828125	1200.920043945312	1151.774536132812	495.676025390625	996.8196411132812	1267.68505859375	575.27978515625	955.8385620117188	1264.651489257812	615.2153930664062	1119.155151367188	1255.3974609375	442.1313171386719	811.4642944335938	1281.572998046875	536.4999389648438	890.0406494140625	1289.038208007812	471.7090454101562	914.7293090820312	1299.275634765625	513.5908203125	1584.140747070312	772.4636840820312	504.5323486328125	1511.637817382812	706.2943115234375	507.85595703125	1216.675659179688	681.8486938476562	550.2868041992188	1216.126098632812	768.154052734375	374.6188049316406	977.3163452148438	751.5932006835938	432.3753051757812	957.7680053710938	695.5072631835938	478.4887390136719	1143.498657226562	677.3258666992188	353.9700317382812	783.797119140625	780.1697387695312	343.1381225585938	869.4409790039062	759.2594604492188	394.2651977539062	859.4165649414062	706.6260375976562	572.603515625	1770.472412109375	864.1033935546875	462.5863342285156	1841.03173828125	1043.50244140625	418.1582641601562	1841.07666015625	920.4336547851562	624.0486450195312	1774.058349609375	988.252685546875	595.8865356445312	1049.0927734375	1111.229614257812	424.6554260253906	1012.066589355469	793.29833984375	376.8380432128906	1096.485595703125	867.318359375	480.4540405273438	1111.052612304688	1110.664916992188	532.1747436523438	547.58935546875	1112.3671875	571.3134765625	690.8480834960938	1122.229248046875	558.0892944335938	37.17136383056641	1069.583129882812	596.9207763671875	291.9309997558594	1100.925537109375	319.0891723632812	39.62550735473633	1096.949340820312	384.9149780273438	47.34515762329102	1038.429565429688	451.1642150878906	39.30401611328125	1137.552612304688	599.241943359375	37.79462432861328	987.3801879882812	314.274658203125	539.5968627929688	899.2672119140625	363.3120422363281	811.7249755859375	841.2361450195312	594.1121826171875	119.4063110351562	741.508544921875	374.0518798828125	420.3463134765625	852.0386962890625	420.93896484375	54.89190292358398	881.1903686523438	493.75341796875	57.73297119140625	893.9710083007812	472.3912963867188	76.62375640869141	775.9122924804688	663.121826171875	139.5266418457031	761.873291015625	
634	6.33	590.9889526367188	1107.839233398438	845.4745483398438	639.9781494140625	1124.273681640625	970.87744140625	623.7673950195312	1154.820068359375	907.0630493164062	420.0029602050781	1361.823974609375	989.6160278320312	657.5223388671875	1307.669555664062	891.7216186523438	633.2454833984375	1599.763305664062	921.7608032226562	459.28857421875	1495.88330078125	981.1859130859375	647.816650390625	1416.937255859375	817.9458618164062	677.1161499023438	1578.631469726562	1013.357055664062	621.0997314453125	1567.1650390625	1107.05859375	659.7310180664062	1440.28515625	1174.441772460938	640.951416015625	1229.141723632812	1229.330200195312	678.3594360351562	1200.954711914062	1154.497436523438	490.5784912109375	998.2850952148438	1269.68359375	569.9237060546875	956.6439208984375	1267.158569335938	611.23095703125	1119.633422851562	1257.895751953125	435.4501037597656	813.4174194335938	1283.562255859375	530.4463500976562	891.2001953125	1291.406372070312	465.7248229980469	916.4163208007812	1301.24658203125	512.1028442382812	1584.282470703125	774.57470703125	503.1352844238281	1511.731689453125	708.4436645507812	506.4714965820312	1216.725830078125	684.2699584960938	548.9926147460938	1216.288818359375	770.5682983398438	373.2778015136719	977.3636474609375	754.2566528320312	430.9879760742188	957.8271484375	698.109375	477.1234741210938	1143.550537109375	679.8120727539062	352.6893310546875	783.975830078125	783.0767211914062	341.7935180664062	869.5003662109375	762.0364990234375	392.9070129394531	859.455322265625	709.3997192382812	571.0798950195312	1770.85595703125	866.4425659179688	460.5206298828125	1841.044799804688	1045.607177734375	416.4250183105469	1841.244140625	922.3939208984375	622.178955078125	1774.279296875	990.7260131835938	593.887451171875	1048.992065429688	1112.948852539062	422.404052734375	1012.615783691406	795.1524047851562	374.3552551269531	1097.059326171875	869.1716918945312	478.7690124511719	1110.9501953125	1112.619873046875	530.5081176757812	547.4910888671875	1112.520874023438	569.682861328125	690.7496948242188	1123.236206054688	558.043212890625	37.27520751953125	1069.479736328125	596.085693359375	291.8927612304688	1101.18896484375	318.9563293457031	39.55167388916016	1096.95703125	384.8572692871094	47.24686813354492	1038.428955078125	451.1389465332031	39.34943008422852	1137.516723632812	599.202880859375	37.8637809753418	987.29345703125	313.3493041992188	539.9336547851562	902.3079223632812	361.3078308105469	812.0555419921875	843.2113647460938	583.4945678710938	112.3324966430664	749.1087646484375	371.1687316894531	419.3722229003906	855.8306884765625	407.1266479492188	56.30228042602539	888.9976196289062	480.058837890625	56.40746688842773	902.0902709960938	459.9455261230469	75.23920440673828	783.6915893554688	653.3225708007812	129.7551116943359	769.4073486328125	
